<svg xmlns="http://www.w3.org/2000/svg" xml:space="preserve" width="257.29578mm" height="108.46373mm" viewBox="0 0 257.29578 108.46373"><defs><path id="a" d="M1.009.28h195.718v62.245H1.009z"/></defs><path d="M779.895 686.329v65.701c0 12.501-12.976 15.859-20.038 15.859-7.124 0-20.051-3.335-20.051-15.846v-65.697l13.371-.02.007 63.591c0 3.232 2.646 5.4 6.66 5.4l.491-.01c3.718-.17 6.188-2.285 6.188-5.388v-63.59zm-75.203-26.903c5.885.049 21.77 1.511 21.77 17.613v90.076H713.08l.007-35.236h-17.366v35.261h-13.374l-.002-90.1c0-16.333 16.406-17.615 22.061-17.615zm-52.952 26.919c10.422 0 18.096 6.659 18.096 21.377 0 11.384-4.672 14.92-7.623 16.989v.058c4.275 2.424 7.416 5.257 7.416 15.321l-.007 27.04h-13.483v-24.966c0-7.141-2.719-10.284-6.523-10.284h-7.254l-.01 35.25h-13.367v-80.785zm-52.94-.004c10.423 0 18.139 6.661 18.139 21.382 0 11.381-4.717 14.918-7.668 16.984v.058c3.307 2 8.493 5.633 8.493 18.792 0 14.1-6.25 23.565-19.082 23.565h-22.637v-80.786zm214.506-.756c7.057 0 20.035 3.345 20.035 15.861v65.671H819.97l-.002-63.562c0-3.237-2.687-5.4-6.677-5.4-4.013 0-6.66 2.169-6.66 5.4l-.01 63.562-13.366.01-.002-65.701c0-12.504 12.93-15.841 20.054-15.841zm-216.448 46.293h-7.434v22.79h7.434c4.629 0 7.461-2.951 7.461-12.246 0-6.763-2.36-10.544-7.461-10.544zm-.182-33.072h-7.252v20.58h7.252c3.274 0 6.778-2.645 6.778-10.283 0-7.555-3.027-10.297-6.778-10.297zm52.942.001h-7.257v20.58h7.257c3.274 0 6.765-2.65 6.765-10.283 0-7.555-3.022-10.297-6.765-10.297zm54.788-26.624-.298.002c-3.14.049-8.41.971-8.41 6.859l-.007 40.343h17.387l.002-40.343c0-6.095-5.58-6.861-8.675-6.861z" style="fill:#000;fill-rule:evenodd;stroke:none;stroke-width:2.57288" transform="translate(-576.045 -659.425)"/></svg>